<?xml version="1.0" encoding="UTF-8"?>
<!DOCTYPE svg PUBLIC "-//W3C//DTD SVG 1.1//EN" "http://www.w3.org/Graphics/SVG/1.1/DTD/svg11.dtd">
<svg xmlns="http://www.w3.org/2000/svg" version="1.1" width="512px" height="512px" style="shape-rendering:geometricPrecision; text-rendering:geometricPrecision; image-rendering:optimizeQuality; fill-rule:evenodd; clip-rule:evenodd" xmlns:xlink="http://www.w3.org/1999/xlink">
<g><path style="opacity:0.99" fill="#000000" d="M 382.5,-0.5 C 388.5,-0.5 394.5,-0.5 400.5,-0.5C 411.121,2.57251 419.288,8.90584 425,18.5C 431.265,34.4608 437.431,50.4608 443.5,66.5C 459.68,73.2846 476.014,79.7846 492.5,86C 502.094,91.7119 508.427,99.8785 511.5,110.5C 511.5,116.5 511.5,122.5 511.5,128.5C 508.427,139.121 502.094,147.288 492.5,153C 476.539,159.265 460.539,165.431 444.5,171.5C 439.853,181.6 435.687,191.933 432,202.5C 431.667,254.5 431.333,306.5 431,358.5C 426.018,391.121 409.518,415.954 381.5,433C 339.125,457.521 296.458,481.521 253.5,505C 245.541,507.821 237.541,509.987 229.5,511.5C 220.167,511.5 210.833,511.5 201.5,511.5C 189.39,509.408 177.724,505.575 166.5,500C 122.838,475.171 79.505,449.838 36.5,424C 16.2281,406.62 3.89475,384.787 -0.5,358.5C -0.5,305.833 -0.5,253.167 -0.5,200.5C 4.81201,168.042 21.4787,143.208 49.5,126C 91.8749,101.479 134.542,77.4793 177.5,54C 205.567,44.5143 233.233,45.5143 260.5,57C 274.748,65.0403 288.915,73.207 303,81.5C 315.224,76.5933 327.391,71.5933 339.5,66.5C 345.569,50.4608 351.735,34.4608 358,18.5C 363.712,8.90584 371.879,2.57251 382.5,-0.5 Z M 388.5,32.5 C 390.792,32.2436 392.959,32.5769 395,33.5C 401.278,49.056 407.278,64.7227 413,80.5C 415.354,85.8581 418.854,90.3581 423.5,94C 439.814,101.441 456.481,108.107 473.5,114C 478.115,115.124 479.615,117.957 478,122.5C 476.581,123.46 475.081,124.293 473.5,125C 456.481,130.893 439.814,137.559 423.5,145C 420.296,147.869 417.463,151.035 415,154.5C 408.554,171.843 401.72,189.009 394.5,206C 389.957,207.615 387.124,206.115 386,201.5C 380.107,184.481 373.441,167.814 366,151.5C 363.131,148.296 359.965,145.463 356.5,143C 339.157,136.554 321.991,129.72 305,122.5C 303.385,117.957 304.885,115.124 309.5,114C 325.245,108.196 340.912,102.196 356.5,96C 362.434,92.067 366.934,86.9003 370,80.5C 375.88,64.3537 382.047,48.3537 388.5,32.5 Z M 214.5,199.5 C 249.436,201.367 274.269,218.034 289,249.5C 301.46,286.502 292.96,317.669 263.5,343C 231.5,365 199.5,365 167.5,343C 139.57,319.475 130.404,289.975 140,254.5C 153.448,220.697 178.282,202.364 214.5,199.5 Z"/></g>
</svg>
