<?xml version="1.0" encoding="UTF-8"?>
<!DOCTYPE svg PUBLIC "-//W3C//DTD SVG 1.1//EN" "http://www.w3.org/Graphics/SVG/1.1/DTD/svg11.dtd">
<svg xmlns="http://www.w3.org/2000/svg" version="1.1" width="512px" height="512px" style="shape-rendering:geometricPrecision; text-rendering:geometricPrecision; image-rendering:optimizeQuality; fill-rule:evenodd; clip-rule:evenodd" xmlns:xlink="http://www.w3.org/1999/xlink">
<g><path style="opacity:0.984" fill="#000000" d="M 100.5,31.5 C 185.834,31.3333 271.167,31.5 356.5,32C 369,35.1667 376.833,43 380,55.5C 380.667,136.5 380.667,217.5 380,298.5C 369.809,274.81 352.975,267.977 329.5,278C 325,281.167 321.167,285 318,289.5C 313.333,301.5 308.667,313.5 304,325.5C 297.783,336.051 289.283,344.217 278.5,350C 267.089,354.137 255.755,358.47 244.5,363C 226.895,376.667 223.728,393.167 235,412.5C 240.419,418.59 246.919,423.09 254.5,426C 205.5,426.667 156.5,426.667 107.5,426C 88.3333,424.167 77.8333,413.667 76,394.5C 75.3333,283.833 75.3333,173.167 76,62.5C 77.5224,46.735 85.689,36.4016 100.5,31.5 Z M 140.5,81.5 C 161.887,81.0451 183.22,81.5451 204.5,83C 213.349,88.5476 215.515,96.0476 211,105.5C 208.736,108.433 205.902,110.6 202.5,112C 181.5,112.667 160.5,112.667 139.5,112C 129.088,107.667 125.922,100.167 130,89.5C 132.855,85.7893 136.355,83.1226 140.5,81.5 Z M 139.5,147.5 C 198.834,147.333 258.168,147.5 317.5,148C 327.892,152.296 331.058,159.796 327,170.5C 324.313,174.194 320.813,176.694 316.5,178C 257.833,178.667 199.167,178.667 140.5,178C 128.078,172.734 125.245,164.234 132,152.5C 134.426,150.548 136.926,148.881 139.5,147.5 Z M 143.5,212.5 C 200.168,212.333 256.834,212.5 313.5,213C 325.343,214.847 330.176,221.68 328,233.5C 325.399,240.053 320.566,243.553 313.5,244C 256.833,244.667 200.167,244.667 143.5,244C 129.656,240.813 125.49,232.646 131,219.5C 134.464,215.69 138.631,213.356 143.5,212.5 Z M 140.5,278.5 C 191.168,278.333 241.834,278.5 292.5,279C 304.714,283.704 307.881,291.871 302,303.5C 299.9,306.467 297.066,308.3 293.5,309C 242.167,309.667 190.833,309.667 139.5,309C 129.108,304.704 125.942,297.204 130,286.5C 132.855,282.789 136.355,280.123 140.5,278.5 Z"/></g>
<g><path style="opacity:0.968" fill="#000000" d="M 344.5,304.5 C 346.288,304.215 347.955,304.548 349.5,305.5C 353.837,318.508 359.004,331.174 365,343.5C 375.429,359.922 389.595,372.089 407.5,380C 415.833,383 424.167,386 432.5,389C 435.167,391 435.167,393 432.5,395C 413.214,399.976 395.881,408.643 380.5,421C 365.528,437.103 355.361,455.937 350,477.5C 348,480.167 346,480.167 344,477.5C 339.024,458.214 330.357,440.881 318,425.5C 301.897,410.528 283.063,400.361 261.5,395C 258.833,393 258.833,391 261.5,389C 283.063,383.639 301.897,373.472 318,358.5C 330.813,342.539 339.646,324.539 344.5,304.5 Z"/></g>
</svg>
