<?xml version="1.0" encoding="UTF-8"?>
<!DOCTYPE svg PUBLIC "-//W3C//DTD SVG 1.1//EN" "http://www.w3.org/Graphics/SVG/1.1/DTD/svg11.dtd">
<svg xmlns="http://www.w3.org/2000/svg" version="1.1" width="512px" height="512px" style="shape-rendering:geometricPrecision; text-rendering:geometricPrecision; image-rendering:optimizeQuality; fill-rule:evenodd; clip-rule:evenodd" xmlns:xlink="http://www.w3.org/1999/xlink">
<g><path style="opacity:0.975" fill="#000000" d="M 243.5,59.5 C 256.83,58.428 269.83,59.928 282.5,64C 322.996,86.747 363.329,109.747 403.5,133C 421.35,145.548 431.85,162.715 435,184.5C 435.667,210.5 435.667,236.5 435,262.5C 431.408,269.442 425.908,271.609 418.5,269C 413.067,266.558 407.4,264.892 401.5,264C 399.376,262.878 397.543,261.378 396,259.5C 394.857,240.248 394.024,220.914 393.5,201.5C 354.252,224.04 315.085,246.707 276,269.5C 275.333,314.5 275.333,359.5 276,404.5C 282.302,411.803 288.968,418.803 296,425.5C 298.812,431.902 297.645,437.402 292.5,442C 271.109,453.086 249.109,454.419 226.5,446C 186.671,423.586 147.004,400.92 107.5,378C 88.9352,365.054 78.4352,347.22 76,324.5C 75.3333,278.5 75.3333,232.5 76,186.5C 79.0127,161.616 91.1794,142.783 112.5,130C 151.167,108 189.833,86 228.5,64C 233.577,62.32 238.577,60.82 243.5,59.5 Z M 248.5,100.5 C 257.841,99.2826 266.508,101.116 274.5,106C 307.963,125.301 341.296,144.801 374.5,164.5C 334.997,187.753 295.33,210.753 255.5,233.5C 215.67,210.753 176.003,187.753 136.5,164.5C 165.669,147.081 195.002,129.914 224.5,113C 232.477,108.514 240.477,104.347 248.5,100.5 Z M 116.5,201.5 C 156.19,223.764 195.69,246.431 235,269.5C 235.833,314.17 235.667,358.837 234.5,403.5C 199.003,383.253 163.67,362.753 128.5,342C 121.939,336.712 118.105,329.878 117,321.5C 116.5,281.501 116.333,241.501 116.5,201.5 Z"/></g>
<g><path style="opacity:0.969" fill="#000000" d="M 397.5,303.5 C 400.044,303.104 402.211,303.771 404,305.5C 409.609,320.328 415.609,334.994 422,349.5C 427.661,358.828 435.494,365.661 445.5,370C 458.246,374.804 470.913,379.804 483.5,385C 486.167,387.667 486.167,390.333 483.5,393C 471.5,397.667 459.5,402.333 447.5,407C 436.555,411.279 428.055,418.446 422,428.5C 415.609,443.006 409.609,457.672 404,472.5C 401.456,475.08 398.956,475.08 396.5,472.5C 391.39,460.613 386.557,448.613 382,436.5C 378.004,426.341 371.504,418.175 362.5,412C 348.41,405.415 334.077,399.415 319.5,394C 314.468,392.18 313.468,389.18 316.5,385C 331.328,379.391 345.994,373.391 360.5,367C 370.554,360.945 377.721,352.445 382,341.5C 386.694,328.57 391.861,315.903 397.5,303.5 Z"/></g>
</svg>
