<?xml version="1.0" encoding="UTF-8"?>
<!DOCTYPE svg PUBLIC "-//W3C//DTD SVG 1.1//EN" "http://www.w3.org/Graphics/SVG/1.1/DTD/svg11.dtd">
<svg xmlns="http://www.w3.org/2000/svg" version="1.1" width="512px" height="512px" style="shape-rendering:geometricPrecision; text-rendering:geometricPrecision; image-rendering:optimizeQuality; fill-rule:evenodd; clip-rule:evenodd" xmlns:xlink="http://www.w3.org/1999/xlink">
<g><path style="opacity:0.978" fill="#000000" d="M 369.5,15.5 C 377.187,13.996 383.687,15.996 389,21.5C 394.043,39.0406 398.71,56.7072 403,74.5C 409.149,88.6488 419.649,97.8155 434.5,102C 448.862,105.206 463.196,108.539 477.5,112C 484.487,114.807 487.82,119.973 487.5,127.5C 487.82,135.027 484.487,140.193 477.5,143C 463.196,146.461 448.862,149.794 434.5,153C 419.649,157.185 409.149,166.351 403,180.5C 398.71,198.293 394.043,215.959 389,233.5C 382.055,240.069 374.222,241.236 365.5,237C 362.894,235.062 361.061,232.562 360,229.5C 356.539,215.196 353.206,200.862 350,186.5C 345.815,171.649 336.649,161.149 322.5,155C 304.763,150.483 287.096,145.816 269.5,141C 263.833,135.681 261.999,129.181 264,121.5C 265.061,118.438 266.894,115.938 269.5,114C 287.096,109.184 304.763,104.517 322.5,100C 336.649,93.8511 345.815,83.3511 350,68.5C 353.224,52.6027 357.224,36.936 362,21.5C 364.114,18.8792 366.614,16.8792 369.5,15.5 Z"/></g>
<g><path style="opacity:0.994" fill="#000000" d="M 75.5,111.5 C 131.501,111.333 187.501,111.5 243.5,112C 239.5,122.333 239.5,132.667 243.5,143C 191.5,143.333 139.5,143.667 87.5,144C 68.3333,145.833 57.8333,156.333 56,175.5C 55.5,220.499 55.3333,265.499 55.5,310.5C 127.277,295.149 191.777,310.149 249,355.5C 283.32,334.835 319.987,329.168 359,338.5C 359.333,312.167 359.667,285.833 360,259.5C 370.333,263.5 380.667,263.5 391,259.5C 391.667,320.833 391.667,382.167 391,443.5C 384.41,471.757 366.91,488.924 338.5,495C 251.167,495.667 163.833,495.667 76.5,495C 48.1171,488.951 30.6171,471.784 24,443.5C 23.3333,350.167 23.3333,256.833 24,163.5C 30.6811,135.653 47.8478,118.319 75.5,111.5 Z"/></g>
<g><path style="opacity:0.973" fill="#000000" d="M 271.5,183.5 C 297.495,180.568 314.995,191.235 324,215.5C 328.883,240.234 320.05,258.067 297.5,269C 277.364,275.509 260.198,271.009 246,255.5C 231.336,232.291 233.836,211.125 253.5,192C 259.208,188.31 265.208,185.477 271.5,183.5 Z"/></g>
</svg>
