<?xml version="1.0" encoding="UTF-8"?>
<!DOCTYPE svg PUBLIC "-//W3C//DTD SVG 1.1//EN" "http://www.w3.org/Graphics/SVG/1.1/DTD/svg11.dtd">
<svg xmlns="http://www.w3.org/2000/svg" version="1.1" width="512px" height="512px" style="shape-rendering:geometricPrecision; text-rendering:geometricPrecision; image-rendering:optimizeQuality; fill-rule:evenodd; clip-rule:evenodd" xmlns:xlink="http://www.w3.org/1999/xlink">
<g><path style="opacity:0.98" fill="#000000" d="M 385.5,-0.5 C 389.5,-0.5 393.5,-0.5 397.5,-0.5C 401.811,1.6467 404.978,4.98004 407,9.5C 414.667,33.1667 422.333,56.8333 430,80.5C 455.224,88.797 480.391,97.297 505.5,106C 508.121,108.114 510.121,110.614 511.5,113.5C 511.5,117.5 511.5,121.5 511.5,125.5C 509.353,129.811 506.02,132.978 501.5,135C 477.833,142.667 454.167,150.333 430.5,158C 422.203,183.224 413.703,208.391 405,233.5C 398.055,240.069 390.222,241.236 381.5,237C 378.894,235.062 377.061,232.562 376,229.5C 368.333,205.833 360.667,182.167 353,158.5C 329.256,150.474 305.423,142.641 281.5,135C 274.513,132.193 271.18,127.027 271.5,119.5C 271.18,111.973 274.513,106.807 281.5,104C 305.423,96.3588 329.256,88.5255 353,80.5C 360.938,55.3525 369.271,30.3525 378,5.5C 380.114,2.87922 382.614,0.879222 385.5,-0.5 Z"/></g>
<g><path style="opacity:0.977" fill="#000000" d="M 73.5,71.5 C 83.36,69.3496 90.5267,72.6829 95,81.5C 95.4997,88.8258 95.6663,96.1591 95.5,103.5C 103.223,103.2 110.89,103.533 118.5,104.5C 126.816,109.149 129.65,116.149 127,125.5C 125.167,130 122,133.167 117.5,135C 110.174,135.5 102.841,135.666 95.5,135.5C 95.8004,143.223 95.4671,150.89 94.5,158.5C 89.8514,166.816 82.8514,169.65 73.5,167C 69,165.167 65.8333,162 64,157.5C 63.5003,150.174 63.3337,142.841 63.5,135.5C 55.7767,135.8 48.1101,135.467 40.5,134.5C 32.1837,129.851 29.3504,122.851 32,113.5C 33.8333,109 37,105.833 41.5,104C 48.8258,103.5 56.1591,103.334 63.5,103.5C 63.3337,96.1591 63.5003,88.8258 64,81.5C 66.0223,76.98 69.189,73.6467 73.5,71.5 Z"/></g>
<g><path style="opacity:0.965" fill="#000000" d="M -0.5,303.5 C -0.5,298.167 -0.5,292.833 -0.5,287.5C 2.41391,279.542 7.74725,273.708 15.5,270C 55.4877,257.059 95.4877,244.226 135.5,231.5C 148.226,191.488 161.059,151.488 174,111.5C 183.526,95.1055 197.026,90.9388 214.5,99C 219.049,102.253 222.549,106.42 225,111.5C 237.941,151.488 250.774,191.488 263.5,231.5C 303.512,244.226 343.512,257.059 383.5,270C 399.895,279.526 404.061,293.026 396,310.5C 392.747,315.049 388.58,318.549 383.5,321C 343.512,333.941 303.512,346.774 263.5,359.5C 250.774,399.512 237.941,439.512 225,479.5C 215.474,495.895 201.974,500.061 184.5,492C 179.951,488.747 176.451,484.58 174,479.5C 161.059,439.512 148.226,399.512 135.5,359.5C 95.4877,346.774 55.4877,333.941 15.5,321C 7.74725,317.292 2.41391,311.458 -0.5,303.5 Z M 198.5,142.5 C 199.497,142.47 200.164,142.97 200.5,144C 212.333,180.167 224.167,216.333 236,252.5C 237.046,254.09 238.213,255.59 239.5,257C 277.287,270.318 315.287,283.151 353.5,295.5C 315.287,307.849 277.287,320.682 239.5,334C 238.213,335.41 237.046,336.91 236,338.5C 224.127,375.287 211.96,411.953 199.5,448.5C 186.955,410.698 174.122,373.031 161,335.5C 159.59,334.213 158.09,333.046 156.5,332C 119.713,320.127 83.0468,307.96 46.5,295.5C 83.0468,283.04 119.713,270.873 156.5,259C 158.09,257.954 159.59,256.787 161,255.5C 174.39,218.163 186.89,180.496 198.5,142.5 Z"/></g>
<g><path style="opacity:0.976" fill="#000000" d="M 405.5,511.5 C 401.5,511.5 397.5,511.5 393.5,511.5C 389.189,509.353 386.022,506.02 384,501.5C 379.202,486.104 374.202,470.771 369,455.5C 352.024,448.951 334.858,442.785 317.5,437C 311.833,431.681 309.999,425.181 312,417.5C 313.061,414.438 314.894,411.938 317.5,410C 334.081,404.139 350.748,398.473 367.5,393C 374.041,376.022 380.208,358.855 386,341.5C 391.319,335.833 397.819,333.999 405.5,336C 408.562,337.061 411.062,338.894 413,341.5C 419.263,357.954 424.929,374.621 430,391.5C 447.078,397.734 464.244,403.901 481.5,410C 487.167,415.319 489.001,421.819 487,429.5C 485.939,432.562 484.106,435.062 481.5,437C 464.244,443.099 447.078,449.266 430,455.5C 424.638,472.287 418.971,488.954 413,505.5C 410.886,508.121 408.386,510.121 405.5,511.5 Z"/></g>
</svg>
