<?xml version="1.0" encoding="UTF-8"?>
<!DOCTYPE svg PUBLIC "-//W3C//DTD SVG 1.1//EN" "http://www.w3.org/Graphics/SVG/1.1/DTD/svg11.dtd">
<svg xmlns="http://www.w3.org/2000/svg" version="1.1" width="512px" height="512px" style="shape-rendering:geometricPrecision; text-rendering:geometricPrecision; image-rendering:optimizeQuality; fill-rule:evenodd; clip-rule:evenodd" xmlns:xlink="http://www.w3.org/1999/xlink">
<g><path style="opacity:0.99" fill="#000000" d="M 51.5,-0.5 C 57.1667,-0.5 62.8333,-0.5 68.5,-0.5C 127.011,31.0933 185.011,63.7599 242.5,97.5C 243.748,96.9598 244.915,96.2931 246,95.5C 251.47,80.7548 257.137,66.0882 263,51.5C 274.715,39.0765 287.048,38.4098 300,49.5C 306.647,64.5999 312.813,79.9332 318.5,95.5C 333.024,101.592 347.691,107.425 362.5,113C 374.27,122.254 376.437,133.421 369,146.5C 363.671,152.25 357.171,156.084 349.5,158C 390.167,181.333 430.833,204.667 471.5,228C 485.787,240.435 488.954,255.268 481,272.5C 477.5,277.333 473.333,281.5 468.5,285C 340.5,358 212.5,431 84.5,504C 79.1862,506.827 73.8529,509.327 68.5,511.5C 62.8333,511.5 57.1667,511.5 51.5,511.5C 37.2166,507.043 28.7166,497.376 26,482.5C 25.3333,330.833 25.3333,179.167 26,27.5C 29.1686,13.1705 37.6686,3.83717 51.5,-0.5 Z M 281.5,64.5 C 282.79,65.0577 283.623,66.0577 284,67.5C 289.201,83.4482 295.368,98.9482 302.5,114C 318.613,120.147 334.613,126.48 350.5,133C 334.945,139.187 319.278,145.187 303.5,151C 301.383,152.731 299.883,154.898 299,157.5C 293.87,172.419 288.203,187.085 282,201.5C 275.804,185.912 269.804,170.245 264,154.5C 262.457,152.622 260.624,151.122 258.5,150C 243.39,144.611 228.39,138.944 213.5,133C 228.055,127.147 242.721,121.48 257.5,116C 260.102,115.117 262.269,113.617 264,111.5C 269.939,95.8483 275.772,80.1817 281.5,64.5 Z"/></g>
<g><path style="opacity:0.957" fill="#000000" d="M 363.5,-0.5 C 366.167,-0.5 368.833,-0.5 371.5,-0.5C 372.836,1.01027 374.003,2.67694 375,4.5C 378.167,12.8333 381.333,21.1667 384.5,29.5C 393.689,33.5917 403.023,37.425 412.5,41C 416.5,45.3333 416.5,49.6667 412.5,54C 403.5,57.5 394.5,61 385.5,64.5C 381.408,73.6892 377.575,83.0226 374,92.5C 369.667,96.5 365.333,96.5 361,92.5C 357.598,83.4606 354.098,74.4606 350.5,65.5C 341.402,61.187 332.069,57.3537 322.5,54C 318.5,49.6667 318.5,45.3333 322.5,41C 332.069,37.6463 341.402,33.813 350.5,29.5C 353.961,21.2836 357.128,12.9503 360,4.5C 360.997,2.67694 362.164,1.01027 363.5,-0.5 Z"/></g>
</svg>
