<?xml version="1.0" encoding="UTF-8"?>
<!DOCTYPE svg PUBLIC "-//W3C//DTD SVG 1.1//EN" "http://www.w3.org/Graphics/SVG/1.1/DTD/svg11.dtd">
<svg xmlns="http://www.w3.org/2000/svg" version="1.1" width="512px" height="512px" style="shape-rendering:geometricPrecision; text-rendering:geometricPrecision; image-rendering:optimizeQuality; fill-rule:evenodd; clip-rule:evenodd" xmlns:xlink="http://www.w3.org/1999/xlink">
<g><path style="opacity:0.978" fill="#000000" d="M 377.5,15.5 C 385.187,13.996 391.687,15.996 397,21.5C 402.043,39.0406 406.71,56.7072 411,74.5C 417.149,88.6488 427.649,97.8155 442.5,102C 456.862,105.206 471.196,108.539 485.5,112C 492.487,114.807 495.82,119.973 495.5,127.5C 495.82,135.027 492.487,140.193 485.5,143C 471.196,146.461 456.862,149.794 442.5,153C 427.649,157.185 417.149,166.351 411,180.5C 406.71,198.293 402.043,215.959 397,233.5C 390.055,240.069 382.222,241.236 373.5,237C 370.894,235.062 369.061,232.562 368,229.5C 364.539,215.196 361.206,200.862 358,186.5C 353.815,171.649 344.649,161.149 330.5,155C 312.763,150.483 295.096,145.816 277.5,141C 271.833,135.681 269.999,129.181 272,121.5C 273.061,118.438 274.894,115.938 277.5,114C 295.096,109.184 312.763,104.517 330.5,100C 344.649,93.8511 353.815,83.3511 358,68.5C 361.224,52.6027 365.224,36.936 370,21.5C 372.114,18.8792 374.614,16.8792 377.5,15.5 Z"/></g>
<g><path style="opacity:0.995" fill="#000000" d="M 169.5,127.5 C 179.36,125.35 186.527,128.683 191,137.5C 191.667,253.5 191.667,369.5 191,485.5C 188.193,492.487 183.027,495.82 175.5,495.5C 167.973,495.82 162.807,492.487 160,485.5C 159.333,369.5 159.333,253.5 160,137.5C 162.022,132.98 165.189,129.647 169.5,127.5 Z"/></g>
<g><path style="opacity:0.994" fill="#000000" d="M 25.5,167.5 C 35.36,165.35 42.5267,168.683 47,177.5C 47.6667,266.833 47.6667,356.167 47,445.5C 44.1932,452.487 39.0265,455.82 31.5,455.5C 23.9735,455.82 18.8068,452.487 16,445.5C 15.3333,356.167 15.3333,266.833 16,177.5C 18.0223,172.98 21.189,169.647 25.5,167.5 Z"/></g>
<g><path style="opacity:0.994" fill="#000000" d="M 241.5,175.5 C 251.36,173.35 258.527,176.683 263,185.5C 263.667,269.5 263.667,353.5 263,437.5C 260.193,444.487 255.027,447.82 247.5,447.5C 239.973,447.82 234.807,444.487 232,437.5C 231.333,353.5 231.333,269.5 232,185.5C 234.022,180.98 237.189,177.647 241.5,175.5 Z"/></g>
<g><path style="opacity:0.992" fill="#000000" d="M 97.5,199.5 C 107.36,197.35 114.527,200.683 119,209.5C 119.667,277.5 119.667,345.5 119,413.5C 116.193,420.487 111.027,423.82 103.5,423.5C 95.9735,423.82 90.8068,420.487 88,413.5C 87.3333,345.5 87.3333,277.5 88,209.5C 90.0223,204.98 93.189,201.647 97.5,199.5 Z"/></g>
<g><path style="opacity:0.989" fill="#000000" d="M 313.5,231.5 C 323.36,229.35 330.527,232.683 335,241.5C 335.667,288.167 335.667,334.833 335,381.5C 332.193,388.487 327.027,391.82 319.5,391.5C 311.973,391.82 306.807,388.487 304,381.5C 303.333,334.833 303.333,288.167 304,241.5C 306.022,236.98 309.189,233.647 313.5,231.5 Z"/></g>
</svg>
